<svg xmlns="http://www.w3.org/2000/svg" xmlns:xlink="http://www.w3.org/1999/xlink" height="500" width="750"><path fill="#c60b1e" d="M0 0h750v500H0z"/><path fill="#ffc400" d="M0 125h750v250H0z"/><g stroke="#000" stroke-width=".4"><g stroke-width=".3"><path fill="#ad1519" stroke-linejoin="round" d="M168 222h-1l-1-1h-1v-1l-1-2 2-2h1l2-1h1s0 0 0 0l1-1h8l1 1h3l2 1 1 1 1 1v1l-1 1-1 1v1h-1l-8-1-8 1h0z"/><g fill="#c8b100"><ellipse cx="175.7" cy="215.7" rx="1.4" ry="2.5"/><ellipse cx="175.7" cy="215.7" rx=".6" ry="2.3"/><circle cx="175.7" cy="213" stroke="none" r=".9"/><path d="M177 213v0h-3v0h1v-2h0v0h0v-1h1v1h1v0h-1v2h1"/><path fill="none" d="M176 212a1 1 0 11-1 0"/><path d="M176 222h-5v-2l-1-2-3-3h1c1-1 3 1 5 4h5s0 0 0 0c2-3 4-5 6-4 0 0 0 0 0 0l-3 3v4h-5z"/><path fill="none" d="M168 215l4 4m12-4l-5 4"/></g><g id="a" fill="#c8b100"><path d="M169 224l-1-1 8-1 7 1v1l-1 1-6-1-7 1v-1h0"/><path d="M176 227l6-1 1-1h-1l-6-1-7 1s0 0 0 0l1 1 6 1zm7-5h0-1l-1-1h-2-1-1l-1-1-2 1h-1-2l-1 1h-2s0 0 0 0h0v1l8-1 7 1v-1h0z"/><path d="M176 219v1s0 0 0 0l1 1 1-1s0 0 0 0 0 0 0 0l1 1 2-1h-1 1v1l1 1 1-1h0v0l1 1 1-1s0 0 0 0h0l-1 1-1 1v-1h-1l-1-1-2 1-1-1-1 1-1-1-2 1-1-1a2 2 0 01-2 0l-2 1s0 0 0 0l-1 1-1-1-1-1h1l1 1v-1 0h0l1 1 1-1a1 1 0 000-1h1s0 0 0 0l1 1 1-1s0 0 0 0 0 0 0 0l1 1 1-1s0 0 0 0l1-1h0z"/><path stroke-linejoin="round" d="M176 222l-8 1s0 0 0 0 0 0 0 0l8-1 7 1h0l-7-1z"/><path d="M165 221v-1h-1 1s0 0 0 0h1v1h-1zm2-1v1h-1 0l1-1h0M165 221h1s0 0 0 0 0 0 0 0h-1zm3 0v-1l1 1h-1s0 0 0 0zm1-1v1l1-1h0v-1h-1v1"/><path d="M170 218h-1l1 2h1v-2h-1M172 219v1h-1 0v-1h1"/><circle cx="170.5" cy="219.7" r=".5"/><path d="M173 220s0 0 0 0h0s0 0 0 0 0 0 0 0zm1-1v1l2-1h0-2 0M176 217l-1 1v1h1l1-1-1-1M178 219l-1 1-1-1h2"/><circle cx="175.7" cy="219.2" r=".5"/><path d="M179 220h-1s0 0 0 0 0 0 0 0 0 0 0 0zm0-1v1h2v-1h-2"/><path d="M181 218h1l-1 2h0v-1l-1-1h1"/><path d="M183 220l-1 1-1-1h0v-1h1l1 1"/><circle cx="180.8" cy="219.7" r=".5"/><path d="M183 221v-1 1s0 0 0 0 0 0 0 0zm3 0v-1h0s0 0 0 0h0v1s0 0 0 0zm-2-1v1h2l-2-1h0M186 221h-1s0 0 0 0h1s0 0 0 0z"/></g><g id="b" fill="none"><path fill="#ad1519" d="M168 224h1-1"/><path fill="#058e6e" d="M171 224h-1s0 0 0 0v-1h2v1h-1"/><circle fill="#fff" cx="173.2" cy="223.3" r=".4"/><path fill="#ad1519" d="M176 223h-1-1 3s0 0 0 0h0-1"/><circle fill="#fff" cx="178.2" cy="223.3" r=".4"/><path fill="#058e6e" d="M181 224h1l-1-1h0-1s0 0 0 0v1h0"/><path fill="#ad1519" d="M183 224h0-1 1"/><path fill="#ad1519" stroke-linejoin="round" d="M176 226h-7a27 27 0 0113 0h-6z"/><path stroke-width="0" d="M177 226v-1m-1 1v-1m0 1v-1M175 226v-1M175 226v-1M175 226v-1m-1 1v-1"/><path stroke-width=".1" d="M174 226v-1M174 226v-1m0 1v-1M173 226v-1m0 1v-1M172 226v-1m1 1v-1m0 1v-1M172 226v-1M172 226v-1M172 226v-1M171 226v-1m0 1v-1m0 1v-1M171 226v-1M171 226v-1M170 226v-1"/><path stroke-width=".2" d="M170 226v-1"/></g></g><g id="c"><g fill="#005bbf"><path d="M191 331l-4-1-4-1-3 1-4 1-4-1-4-1-4 1-4 1v2l4-1 4-1 4 1 4 1 4-1 3-1 4 1 4 1v-2z"/><path fill="#ccc" d="M191 333l-4-1-4-1-3 1-4 1-4-1-4-1-4 1-4 1v2h4l4-1 4 1 4 1 4-1 3-1 4 1h4v-2"/><path d="M191 336l-4-1-4-1-3 1h-8l-4-1-4 1-4 1v2l4-1 4-1 4 1 4 1 4-1 3-1 4 1 4 1v-3"/><path fill="#ccc" d="M191 340l-4-1h-7l-4 1-4-1h-8l-4 1v-2l4-1 4-1 4 1 4 1 4-1 3-1 4 1 4 1v2"/><path d="M191 343l-4-1-4-1-3 1-4 1-4-1-4-1-4 1-4 1v-3l4-1h8l4 1 4-1h7l4 1v3z"/></g><g fill="#c8b100"><path stroke-linejoin="round" d="M167 321s0 0 0 0c0 2-1 3-3 3h23c-1 0-3-1-3-3 0 0 0 0 0 0s0 0 0 0h-17s0 0 0 0z"/><path d="M167 319h17l1 1-1 1h-17l-1-1 1-1zm-3 11h23v-6h-23v6z"/></g><path fill="#ccc" d="M168 318h16v-79h-16v79z"/><path fill="none" d="M179 239v79m2-79v79"/><g fill="#c8b100"><path d="M165 232h22v-5h-22v5z"/><path stroke-linejoin="round" d="M167 236a1 1 0 010 0h17s0 0 0 0l-1-1 2-1h-18s0 0 0 0h0l1 1-1 1z"/><path d="M167 236h17l1 1-1 1h-17l-1-1 1-1zm0-4h17l1 1-1 1h-17l-1-1 1-1z"/></g></g><g id="d" fill="#ad1519"><path d="M162 299l-3 3 2 2 2 4a6 6 0 00-1-9z"/><path stroke-linejoin="round" d="M200 268a52 52 0 00-24-2c-10 2-17 6-16 9 0 0 0 0 0 0l-4-8c-1-4 7-8 18-10l10-1c7 0 13 1 16 3v9"/><path d="M168 278c-5 0-8-1-8-3-1-1 1-3 4-5l4 1v7m16-6l6 2v1c0 1-2 3-6 5v-8"/><path stroke-linejoin="round" d="M157 294c0-1 4-4 11-6l8-4c8-3 15-8 14-9v-1l1 9c1 1-5 5-13 9l-10 4c-5 2-9 5-9 6l-2-8v0z"/></g><g stroke-width=".3"><path fill="#ad1519" d="M325 220l-1 1h-2-1-1l-1 1h-1-1s0 0 0 0h-1l-1-1h0l-1-1v-1l3-2h16c2 1 3 1 2 2v2h-1v1h-1 0-1-1l-1-1h-2-1-1l-1-1z"/><g fill="#c8b100"><ellipse cx="324.8" cy="216.2" rx="1.4" ry="2"/><ellipse cx="324.9" cy="216.2" rx=".6" ry="1.8"/><circle cx="324.8" cy="213.9" stroke="none" r=".9"/><path d="M326 214v0h-2v0h1v-2h-1v0h1v-1h0v1h1v0h-1v2h1"/><path fill="none" d="M325 213a1 1 0 110 0"/></g><g fill="none" stroke-width=".2"><path stroke-width=".3" stroke-linecap="round" d="M314 220v-1c0-2 1-3 3-3h1"/><path stroke-width=".3" d="M319 218v-1c0-1 1-2 3-2h1m7 3v-1l-2-2h-2"/><path stroke-width=".3" stroke-linecap="round" d="M335 220v-1c0-2-1-3-2-3h-2"/><ellipse cx="313.6" cy="218.7" rx=".5" ry=".4"/><ellipse cx="313.7" cy="217.1" rx=".5" ry=".4"/><ellipse cx="314.8" cy="215.9" rx=".5" ry=".4"/><ellipse cx="316.1" cy="215.3" rx=".5" ry=".4"/><ellipse cx="317.6" cy="215.3" rx=".5" ry=".4"/><ellipse fill="#fff" cx="318.4" cy="217.1" rx=".5" ry=".4"/><ellipse cx="318.7" cy="215.6" rx=".5" ry=".4"/><ellipse cx="319.8" cy="214.6" rx=".5" ry=".4"/><ellipse cx="321.2" cy="214.2" rx=".5" ry=".4"/><ellipse cx="322.7" cy="214.2" rx=".5" ry=".4"/><ellipse cx="326.9" cy="214.2" rx=".5" ry=".4"/><ellipse cx="328.4" cy="214.2" rx=".5" ry=".4"/><ellipse cx="329.8" cy="214.6" rx=".5" ry=".4"/><ellipse cx="330.9" cy="215.6" rx=".5" ry=".4"/><ellipse fill="#fff" cx="331.2" cy="217.1" rx=".5" ry=".4"/><ellipse cx="332.1" cy="215.3" rx=".5" ry=".4"/><ellipse cx="333.5" cy="215.3" rx=".5" ry=".4"/><ellipse cx="334.9" cy="215.9" rx=".5" ry=".4"/><ellipse cx="335.9" cy="217.1" rx=".5" ry=".4"/><ellipse cx="336.1" cy="218.7" rx=".5" ry=".4"/></g><use xlink:href="#a" x="149.2"/><use xlink:href="#b" x="149.2"/></g><use xlink:href="#c" x="149.2"/><use xlink:href="#d" transform="matrix(-1 0 0 1 501 0)"/><path d="M166 265c2-1 4-2 3-3 0-1-1-2-3-1l-3 1 3 6h1v-1l-1-2zm-1-3l1-1 1 1v2h-1l-1-2m8-3h-1l-1 1 1 6 5-1v-1l-3 1-1-6m9 6l2-7h-1l-2 5-2-5h-1-1l4 7h1m9-5v-1l-2-1-3 2c0 2 4 2 4 4h-2l-1-1h-1v1l2 1c2 0 3-1 3-2 0-2-3-2-3-3l1-1 2 1m119 5l2-7h-1l-1 5-3-4h-1-1l4 6h1m6-7h-1v7h4v-1h-3v-6m8 1l2 1v-1l-6-1v1h2l-1 6h2l1-6m2 7h2v-3h1v1l1 2 1 1h1v-1l-2-3 3-1-1-2h-2l-2-1-2 7m3-6l2 1v1l-2 1v-3m9 7l-1 3h1l1 1 1-8a8 8 0 01-1 0l-7 4h1l2-1 3 1zm-2-1l2-2v3l-2-1" fill="#c8b100" stroke="none"/><path fill="#ad1519" stroke-width=".3" d="M250 183l16 2 8 2 7 1c3 0 7 0 11 2l8 5-2 1v4l-5 5-2 2-5 4h-2l-1 3-33-4-33 4-1-3h-3l-5-4-2-2-4-5-1-4-1-1 8-5c4-2 8-2 10-2a34 34 0 0016-3l16-2z"/><g fill="#c8b100"><path d="M225 191l2 2 2-4a8 8 0 01-4-7c0-5 6-8 12-8l9 2v-2l-9-2c-7 0-13 5-14 10v1c0 2 1 5 3 7l-1 1"/><path d="M225 191c-2-2-4-4-4-7 0-4 2-7 6-9a9 9 0 00-4 8c0 2 1 5 3 7l-1 1"/><path d="M202 195a9 9 0 01-1-10c2-5 9-8 17-8l6 1-1 1h-6c-7 0-13 3-15 7a7 7 0 000 3l2 6-2 4-2-1 2-3z"/><path d="M205 180l-4 5a9 9 0 001 10l-1 2c-2-1-3-4-3-6 0-4 3-8 7-11zm45-9c2 0 3 1 4 3v5s0 0 0 0v1l1 8-5 5-5-5 1-8v-1s0 0 0 0v-5c1-2 2-3 4-3z"/><path d="M250 173l2 1v5s0 0 0 0v1l2 8-4 3-4-3 2-8v-1s0 0 0 0v-5l2-1zm25 18l-2 2-2-4a8 8 0 004-7c0-5-6-8-12-8l-9 2v-2l9-2c7 0 14 5 14 10v1c0 2-1 5-3 7l1 1"/><path d="M275 191c2-2 4-4 4-7 0-4-2-7-6-9a9 9 0 014 8c0 2-1 5-3 7l1 1"/><path d="M298 195a9 9 0 001-10c-2-5-9-8-16-8l-7 1 1 1h6c7 0 13 3 15 7v3l-2 6 2 4 2-1-2-3z"/><path d="M295 180l4 5a9 9 0 01-1 10l1 2c2-1 3-4 3-6 0-4-3-8-7-11z"/><ellipse fill="#005bbf" stroke-width=".3" cx="250.1" cy="167.3" rx="4.4" ry="4.2"/><path stroke-width=".3" d="M249 156v2h-3v2h3v7h-3s0 0 0 0v2s0 0 0 0h8s0 0 0 0v-2s0 0 0 0h-3v-7h3v-2h-3v-2h-2z"/></g><g fill="#fff"><ellipse cx="250" cy="188.9" rx="1.9" ry="1.8"/><ellipse cx="250" cy="185.4" rx="1.9" ry="1.8"/><ellipse cx="250" cy="181.6" rx="1.5" ry="1.4"/><ellipse cx="250" cy="178.2" rx="1.1" ry="1"/><ellipse cx="250" cy="175.2" rx=".9" ry=".8"/><ellipse cx="198.9" cy="198.7" rx="1.1" ry="1"/><ellipse cx="197.4" cy="196" rx="1.1" ry="1"/><ellipse cx="196.4" cy="192.9" rx="1.1" ry="1"/><ellipse cx="196.3" cy="189.6" rx="1.1" ry="1"/><ellipse cx="197.1" cy="186.4" rx="1.1" ry="1"/><ellipse cx="198.8" cy="183.4" rx="1.1" ry="1"/><ellipse cx="201.1" cy="181" rx="1.1" ry="1"/><ellipse cx="203.7" cy="179" rx="1.1" ry="1"/><ellipse cx="206.8" cy="177.4" rx="1.1" ry="1"/><ellipse cx="210" cy="176.2" rx="1.1" ry="1"/><ellipse cx="213.7" cy="175.5" rx="1.1" ry="1"/><ellipse cx="217.1" cy="175.4" rx="1.1" ry="1"/><ellipse cx="220.5" cy="175.5" rx="1.1" ry="1"/><ellipse cx="224.2" cy="190.3" rx="1.1" ry="1"/><ellipse cx="222.3" cy="187.7" rx="1.1" ry="1"/><ellipse cx="221.3" cy="184.8" rx="1.1" ry="1"/><ellipse cx="221.5" cy="181.6" rx="1.1" ry="1"/><ellipse cx="222.2" cy="178.4" rx="1.1" ry="1"/><ellipse cx="223.8" cy="175.5" rx="1.1" ry="1"/><ellipse cx="226.4" cy="173.5" rx="1.1" ry="1"/><ellipse cx="229.4" cy="171.8" rx="1.1" ry="1"/><ellipse cx="232.7" cy="170.8" rx="1.1" ry="1"/><ellipse cx="236.1" cy="170.2" rx="1.1" ry="1"/><ellipse cx="239.5" cy="170.3" rx="1.1" ry="1"/><ellipse cx="243" cy="170.9" rx="1.1" ry="1"/><ellipse cx="246.2" cy="172" rx="1.1" ry="1"/><ellipse cx="253.8" cy="172" rx="1.1" ry="1"/><ellipse cx="257" cy="170.9" rx="1.1" ry="1"/><ellipse cx="260.5" cy="170.3" rx="1.1" ry="1"/><ellipse cx="263.9" cy="170.2" rx="1.1" ry="1"/><ellipse cx="267.3" cy="170.8" rx="1.1" ry="1"/><ellipse cx="270.6" cy="171.8" rx="1.1" ry="1"/><ellipse cx="273.6" cy="173.5" rx="1.1" ry="1"/><ellipse cx="276.2" cy="175.5" rx="1.1" ry="1"/><ellipse cx="277.9" cy="178.4" rx="1.1" ry="1"/><ellipse cx="278.6" cy="181.6" rx="1.1" ry="1"/><ellipse cx="278.7" cy="184.8" rx="1.1" ry="1"/><ellipse cx="277.7" cy="187.7" rx="1.1" ry="1"/><ellipse cx="275.8" cy="190.3" rx="1.1" ry="1"/><ellipse cx="279.6" cy="175.5" rx="1.1" ry="1"/><ellipse cx="282.9" cy="175.4" rx="1.1" ry="1"/><ellipse cx="286.4" cy="175.5" rx="1.1" ry="1"/><ellipse cx="290" cy="176.2" rx="1.1" ry="1"/><ellipse cx="293.2" cy="177.4" rx="1.1" ry="1"/><ellipse cx="296.4" cy="179" rx="1.1" ry="1"/><ellipse cx="299" cy="181" rx="1.1" ry="1"/><ellipse cx="301.2" cy="183.4" rx="1.1" ry="1"/><ellipse cx="302.9" cy="186.4" rx="1.1" ry="1"/><ellipse cx="303.7" cy="189.6" rx="1.1" ry="1"/><ellipse cx="303.6" cy="192.9" rx="1.1" ry="1"/><ellipse cx="302.6" cy="196" rx="1.1" ry="1"/><ellipse cx="301.1" cy="198.7" rx="1.1" ry="1"/></g><g fill="#c8b100"><path d="M250 226c-12 0-23-1-31-4l-1-1 1-1c8-2 19-4 31-4s23 2 31 4l1 1-1 1c-8 3-19 4-31 4"/><path d="M250 216c-12 0-23 2-31 4l-1-3-2-3c9-2 21-4 34-4 14 0 26 2 34 4l-2 3v3c-8-2-20-4-32-4"/><path d="M250 210c-13 0-25 2-34 4h-1v-1a126 126 0 0170 0l1 1h-2c-8-2-20-4-34-4"/><path d="M250 200h1v2c0 2 2 4 5 4 2 0 4-1 5-3v-2l1 2c0 3 2 4 5 4a5 5 0 004-5l2-2 1 2-1 2c0 3 2 5 5 5l4-2 1-1v1c0 2 1 3 2 3l4-1 4-4v2l-4 4c-1 1-3 2-4 1-2 0-3-1-3-2l-4 1c-3 0-5-2-6-4l-5 2c-3 0-5-1-6-3a7 7 0 01-5 2c-2 0-5-1-6-3-1 2-3 3-6 3-2 0-3 0-5-2a7 7 0 01-10 1c-1 2-4 4-7 4l-3-1-3 2c-2 1-3 0-5-1l-4-4 1-2 3 4 4 1c2 0 2-1 2-3v-1l1 1 4 2c3 0 5-2 5-5v-4l2 2s0 0 0 0c0 3 2 5 5 5 2 0 4-1 5-4v-2l1 2c0 2 2 3 4 3a5 5 0 005-6h1"/><path d="M208 206a2 2 0 000-1h-3s0 0 0 0l-2-3h-4c0-2 2-3 3-3l3 1v-1l2 2v4l1-2 2-2h2s0 0 0 0v1l3 1-2 2a13 13 0 001 1h-1l-3 1-2-1"/><path fill="#ad1519" d="M205 205h3v2h-2l-1-2"/><path fill="#fff" d="M216 206l1-2 2 1c1 1 0 2-1 2l-2-1"/><path d="M226 202l-1-1 1-1-2-1h-3-1a6 6 0 001 1l-3 2 4 1-1 1s0 0 0 0h1l3-1 1-1M226 192c1 0 2 1 2 3l1-1h1v1l-1 2v2h-2l-1 1-2-2-1-2v-1h2l1-3M229 201a2 2 0 000-2l1-1 2-1 1-1v2l4 1-3 2a6 6 0 000 1h-1-2l-2-1"/><ellipse fill="#ad1519" cx="227.4" cy="200.4" rx="2.2" ry="2.1"/><path fill="#fff" d="M238 202l1-2 1 2-1 1-1-1"/><path d="M249 200l-1-1v-2l-1-1-3-1h-1a6 6 0 000 2l-3 2 3 1v2h1l3-1 2-1M250 188l2 4h1l1-1v2l-1 2-1 2a2 2 0 00-4 0l-1-2v-2l-1-2 1 1h1l2-4M252 200a2 2 0 000-3l2-1 2-1h2l-1 1v1l4 2-4 1a7 7 0 001 2h-2l-2-1-2-1"/><ellipse fill="#ad1519" cx="250.1" cy="198.5" rx="2.2" ry="2.1"/><path fill="#fff" d="M263 202l-1-2-2 2 1 1 2-1"/><path d="M271 201v-1l1-1-2-1-2-1-1-1v2l-3 1 3 2-1 1s0 0 0 0h4l1-1M275 192l-3 3v-1h-1v3l1 2a2 2 0 013 1l1-2 1-2 1-1h-2l-1-3M274 202a2 2 0 001-2l2-1h3s0 0 0 0l-1 1c2 0 3 1 3 2l-3 1v1s0 0 0 0h-1l-2-1-2-1"/><ellipse fill="#ad1519" cx="273" cy="200.4" rx="2.2" ry="2.1"/><path fill="#fff" d="M284 206l-1-2-1 1v2l2-1"/><path d="M292 206l1-1h2s0 0 0 0l3-3h3c0-2-1-3-3-3l-2 1-1-1-2 2v2l-3-2h-1s0 0 0 0v1l-4 1 3 2-1 1h-1 2l2 1 2-1"/><path fill="#ad1519" d="M295 205h-2l-1 2h3v-2"/></g><g fill="none"><path fill="#ad1519" stroke-linejoin="round" d="M250 225c-11 0-21-2-29-4 8-2 18-3 29-3s21 1 29 3c-8 2-18 4-29 4z"/><path stroke-width=".1" d="M258 224v-6m-3 6v-6m-2 7v-7M251 225v-7M249 225v-7"/><path stroke-width=".2" d="M247 225v-7M246 225v-7"/><path stroke-width=".3" d="M244 225v-7M241 224v-6m2 6v-6"/><path d="M239 224v-5m1 5v-6M235 224v-5m1 5v-5m2 5v-5"/><path stroke-width=".5" d="M234 224v-5M233 223v-4"/><path stroke-width=".6" d="M232 223v-4M229 223v-3m2 3v-4M228 223v-3"/><path stroke-width=".7" d="M227 222v-2M225 222v-2"/><path stroke-width=".8" d="M224 222v-1"/><path stroke-width=".9" d="M223 222v-1"/><path d="M220 222c8-3 18-4 30-4s22 1 30 4"/><path fill="#ad1519" d="M217 217l1-1h3l-2 2-2-1"/><path fill="#fff" d="M224 215l1-1 1 1-1 1-1-1"/><path fill="#058e6e" d="M234 215h-3l-1-1 1-1h5l1 1-1 1h-2"/><path fill="#fff" d="M241 213l1-1 1 1-1 1-1-1"/><path fill="#ad1519" d="M250 214h-3l-1-1 1-1h6l2 1-2 1h-3"/><path fill="#fff" d="M258 213l1-1 1 1-1 1-1-1"/><path fill="#058e6e" d="M267 215h2l1-1-1-1h-4l-2 1 1 1h3"/><path fill="#fff" d="M274 215l1-1 1 1-1 1-1-1"/><path fill="#ad1519" d="M284 217l-2-1h-3l3 2 2-1"/></g><g stroke-width=".5"><path fill="#ccc" d="M250 344c-13 0-26-3-36-8-8-4-14-12-14-21v-34h101v34c0 9-6 17-14 21-11 5-23 8-37 8z"/><path fill="#ffd691" d="M253 330c2 0 3 2 3 4s-2 4-5 4-6-2-6-4 1-4 3-4v-1-1h1l1 1v-1h1s0 0 0 0l1 1v-1h1v2"/><path fill="#058e6e" d="M250 340l-5-3h-6l2 2 3 2 6-1m1 1s3-3 6-3h6l-1 1c-1 0-2 2-5 2l-5-1-1 1"/><path fill="#ad1519" d="M251 337a5 5 0 010-7 5 5 0 010 7"/><path fill="#058e6e" d="M250 343v-3-2h1v4h-1v1"/><g fill="#c8b100"><path fill="#ad1519" d="M250 315c0 13-11 23-25 23s-25-10-25-23v-34h50v34"/><path d="M200 314c0 7 3 12 6 16v-50h-6v34zm11 20l6 3v-57h-6v54zm11 4h6v-58h-6v58zm11-1c3 0 5-2 6-3v-54h-6v57zm12-8c2-2 5-7 5-13l1-36h-6v49z"/></g><path fill="#ad1519" d="M301 281v34c0 13-12 23-26 23-13 0-25-10-25-23v-34h51"/><path id="e" fill="#c8b100" stroke="#c8b100" stroke-width=".3" d="M273 306s0 0 0 0l-4-5-2 1-3-4 1-1-5-6h-1v4h2v5h-2v4l2 2h3l1-2h4l1 2zm-7-18v1h2v-1zm-8 20l2-1-2-1-1 1 1 1zm16-10h-1v-5h1v-2l-1-2h-3l-1 2h-4l-1-2h-3v1l5 6 2-1 3 4-1 1 4 5v-1zm-7-1l-1 1 2 2 1-1zm8 36l-2-2-5-1 1-2 4 1 1-1v-6h-1v-5h1v-8a1 1 0 010 0l-4 5 1 1-3 4-1-1-4 3v3a16 16 0 003 3v2l-4-4h-3v-4h0l-1-5h1l1 4h2l3-3-1-2 3-3 2 1 4-5a2 2 0 010 0h-3l-1 1h-4l-1-1h-3l-2 1v4h-1v-4c-2 0-2-1-2-2l2-3v-4h-2v-5h2v-4c-1 0-2-1-2-3 0-1 1-2 3-2l2 2h3l1-2h4l1 2h3l2-2v8h-1v3h1v21h-1v3h1zm-6-18l-1-1-2 2 1 1zm-10-19h-1v3h1zm9 12v-2h-2v2zm-10 9h-2v-4l2-1v5zm1-5h2v5h-1l-1-2zm11 17l1-2-5-2-1 1 5 3zm-1 1l-1 2-4-3v-1l5 2z"/><use xlink:href="#e" transform="matrix(-1 0 0 1 550 0)"/><path fill="#058e6e" d="M273 307c0-2 1-3 2-3s3 1 3 3c0 1-1 3-3 3s-2-2-2-3" stroke="none"/><g fill="#c8b100"><path fill="#ad1519" d="M200 281h50v-55h-50v55z"/><path d="M217 238h-1v-1h-1v4h1v3h-3v7h2v15h-4v8h29v-8h-4v-15h2v-7h-4v-3h2v-4h-2v1h-1v-1h-1v1h-1v-1h-2v4h2v3h-4v-8h2v-4h-2v1h-1v-1h-1v1h-1v-1h-2v4h2v8h-4v-3h2v-4h-2v1h-1v-1h-2v1zm-6 36h29m-29-2h29m-29-2h29m-29-2h29m-29-2h29m-25-2h21m-21-2h21m-21-2h21m-21-1h21m-21-2h21m-21-2h21m-21-2h21m-23-2h25m-25-2h25m-25-2h25m-25-1h25m-22-2h18m-10-2h3m-3-2h3m-3-2h3m-3-2h3m-5-2h7m-13 8h4m-5-2h7m-7 34v-2m0-2v-2m-2 2v2m3 0v-2m2 4v-2m0-2v-2m0-2v-2m0-2v-2m-2 8v-2m-3 2v-2m7 0v2m2-2v-2m-6-2v2m4-2v2m4-2v2m-2-2v-2m2-1v1m0-5v2m-2-4v2m2-4v2m-4-2v2m-4-2v2m-1-4v2m3-2v2m4-2v2m2-4v2m-4-2v2m-4-2v2m-1-3v1m7-1v1m-4-5v2m16-2h-3m5-2h-7m7 34v-2m0-2v-2m2 2v2m-4 0v-2m-2 4v-2m0-2v-2m0-2v-2m0-2v-2m2 8v-2m4 2v-2m-7 0v2m-2-2v-2m5-2v2m-3-2v2m-4-2v2m2-2v-2m-2-1v1m0-5v2m2-4v2m-2-4v2m4-2v2m3-2v2m2-4v2m-4-2v2m-3-2v2m-2-4v2m4-2v2m3-2v2m2-3v1m-7-1v1m3-5v2m-7 18v-2m0-5v-2m0 6v-2m0-6v-2m0-2v-1m0-4v-2m0-2v-2m-9 5h4m4-5h3m4 5h3"/><path d="M230 274v-5c0-1 0-4-5-4-4 0-4 3-4 4v5h9z"/><path d="M222 269h-2l1-3 2 2-1 1zm4-2l1-2-2-1-2 1 1 2h2zm2 2h3l-1-3-2 2v1zm-6-8v-5c0-2-1-3-3-3s-2 1-2 3v5h5zm7 0v-5c0-2 1-3 2-3 2 0 3 1 3 3v5h-5zm-9-13v-4h-4v4h4zm7 0l1-4h-5v4h4zm4 0l-1-4h5l-1 4h-3z"/><path d="M228 274v-5s0-2-3-2c-2 0-3 2-3 2v5h6zm-7-14v-4c0-1 0-2-2-2s-2 1-2 2v4h4zm8 0v-4l2-2c2 0 3 1 3 2v4h-5z" fill="#0039f0" stroke="none"/></g><g><path fill="#ccc" d="M250 281h51v-55h-51v55z"/><path fill="#db4446" stroke-width=".4" d="M276 239h0v-1h-2l-3-1-1-1h-3l2 1 2 2h5z"/><g fill="none" stroke-width=".4"><path fill="#ed72aa" d="M283 237l1 1-1 2 1 1v1l-1-1s0 0 0 0v2l1 2v0l-2-1 1 2v2l-1-2h-1v4l-1-1-1-1 1 1c0 1 0 3 2 5 1 1 2 4 5 3s2-5 2-7l-1-5v-3-3l1-3 1-1v-1l1 1v1l1-1 2-2c0-1 0 0 0 0l-1 2-1 3 1-1h1l-2 2-1 2-1 2c-2 1-1 4-1 5l2 5-1 5-4 1-1 3 1 3h1l1 1v1l-1 2-1 2v3h-1s0 0 0 0l-1-1s0 0 0 0 0 0 0 0l-1 1-1-1c-1-1 0 0 0 0v-1h0l-1-1v-1s0 0 0 0h2l1-1v-1l-1-1-1-1 1 1-1 1v-1l-1-1v2l-1-1-1-1v-1-2-1h-3v3l1 2-1 1h-1-4c-1 0 0 0 0 0l-1 1h-1s-1 0 0 0v-1-1h-1v1l-1-1v-2l2 1-1-1v-1h1v-1l1 1 2 1h2l-1-1 1-1h-1l-1 1v-1l1-1-1-1v2l-1-2v-2l3-1h2l2-1-3-2-2-2-1-1h-1l-1 1-1 1v-1-1l-1 2-1 1v-1-1l-1 1h-2v2h-1-1s0 0 0 0l-1-1h-1v-1l1-1h1l-1-1-1-1h1l1-1 1 1h2l1-1 2-1-1-1-1-1-2-1h-2 1l1-1s0 0 0 0h-1l-2-1v1l1-1h1l-1-1-1-1s0 0 0 0h-2v-1s0 0 0 0v-1h1l-1-1v-1s0 0 0 0l1-1 1 1 1-1v-1l1 1h1l-1 1v1l1 2 2 1 2 1h5l1-1-1-1 1-1 2-1-1-2-2-1v-1h1l2-1 1-1h1l3 2 2 2"/><path d="M269 243l-1 1v1h4l-1 1v3h1l1-1 1-1v1l1 2v-1h1l1-2v2l1 2v-2l1-1v-1 1m-11 1l1-1 1-1h1m1 5l1-1 2-1"/><path stroke-width=".3" d="M283 241l-1-1s0 0 0 0"/><path d="M278 257l2 3-1 2"/></g><path stroke-width=".3" d="M273 236h0v-1l1 1h-1s0 0 0 0z"/><path stroke-width=".1" d="M277 235v-1l1 1 1 1-1-1s0 0 0 0h-1s0 0 0 0h0z"/><path d="M273 240h1-1m1 0h1-1m0-3h0v1-1m1 0h0v1-1" stroke-width=".3"/><path d="M262 236h1l1 1v-1l-2-2 1 1-1 1zm-2 1l-2-1-1 1h1v1h1l1-1zm-2 3l-1 1v1h2v-1l-1-1zm3 10h-1l-1 1h1s0 0 0 0h1v-1zm-1 3l-1 1-1 1h2v-1-1zm2 3v1l1 1v-1-1h-1s0 0 0 0zm7 7h-3 1l1 1s0 0 0 0l1-1zm-2 3h-2v2l1-1h1s0 0 0 0v-1zm2 3v1l1 1v-1-1h-1zm12 1h-1l-1 2 1-1h1s0 0 0 0v-1zm1 3l-1 1 1 1v-1h1l-1-1s0 0 0 0zm3 1v1l1 1v-1-1s0 0 0 0h-1z" fill="#db4446" stroke-width=".4"/><g fill="#c8b100" stroke-width=".3"><path d="M283 233h-1-1 0s0 0 0 0v-1s0 0 0 0v-1l-1 1h0s0 0 0 0a1 1 0 01-1 0s0 0 0 0v-2l-1 1v2l3 2 2 2h2l1-1h-1s0 0 0 0a1 1 0 01-1 0v-1h1v-1h-1v1h-1v-1a1 1 0 010 0v-1s0 0 0 0h0z"/><path d="M281 233s0 0 0 0v1s0 0 0 0v-1zm1 1h-1s0 0 0 0 0 0 0 0h1s0 0 0 0h0m-2-1h0s-1 0 0 0h0s0 0 0 0 0 0 0 0h0m-1-1s0 0 0 0v0s0 0 0 0zm4 3s0 0 0 0h-1s0 0 0 0h1zm0 1h1s0 0 0 0l-1-1h0s0 0 0 0 0 0 0 0v1m1 0s0 0 0 0 0 0 0 0h0s0 0 0 0z" fill="#000" stroke-width=".1"/><path d="M281 230h0v1h1l-1-1"/><path d="M281 230h0v1h1l-1-1M280 231h1-1 0M282 232h-1v-1h1v1M281 231s0 0 0 0v1c0 1 0 0 0 0v-1zm-3-1s0 0 0 0v-1h1v1h-1zM279 231h0l-1-1h1v1"/><path d="M278 230h1s0 0 0 0l-1 1v-1zm6 2h-1v1h0l1-1h0M282 232v1h1v-1h-1M284 233l-1 1v-1h1M283 233v-1 1s0 0 0 0h0zm3 1h0-1 0v-1l1 1M285 235h0v-1h0l1 1h-1M284 234h0l1 1h0v-1h0-1M285 235v-1h0v1s0 0 0 0zm1 1l1 1h1l-1-1h-1s0 0 0 0zM286 236h-1l1 1v-1h0"/><path d="M286 237l1-1h-1v1s0 0 0 0z"/></g></g><g stroke-width=".6"><ellipse fill="#ad1519" cx="250.4" cy="281" rx="16.3" ry="18.3"/><ellipse fill="#005bbf" cx="250.4" cy="281" rx="11.4" ry="13.4"/><g id="f" fill="#c8b100" stroke-width=".3"><path stroke-linejoin="round" d="M245 272l-1 3v2l-1-1-2 2h1v1h1l1 1s0 0 0 0h-1v1h1l-1 2 1-1 1 1 1-1 1 1-1-2h1v-1h-1s0 0 0 0l1-1h1l1-1s0 0 0 0l-2-2-1 1v-2l-1-3z"/><path d="M243 281h4v-1h-4v1z"/></g><use xlink:href="#f" x="10.6"/><use xlink:href="#f" x="5.3" y="9.1"/></g></g></g></svg>
